<?xml version="1.0" standalone="no"?>
<!DOCTYPE svg PUBLIC "-//W3C//DTD SVG 20010904//EN"
 "http://www.w3.org/TR/2001/REC-SVG-20010904/DTD/svg10.dtd">
<svg version="1.0" xmlns="http://www.w3.org/2000/svg"
 width="630.000000pt" height="1280.000000pt" viewBox="0 0 630.000000 1280.000000"
 preserveAspectRatio="xMidYMid meet">

<g transform="translate(0.000000,1280.000000) scale(0.100000,-0.100000)"
fill="#000000" stroke="none">
<path d="M800 12680 c0 -66 -4 -120 -9 -120 -28 0 -55 -154 -28 -163 16 -5 -9
-36 -40 -48 -25 -9 -31 -29 -9 -29 9 0 15 -17 18 -52 6 -59 0 -88 -13 -67 -6
10 -12 9 -28 -5 -16 -14 -21 -31 -21 -68 0 -35 -4 -48 -14 -48 -8 0 -17 8 -19
18 -3 9 -5 -9 -6 -40 0 -32 -5 -58 -11 -58 -5 0 -10 -22 -10 -49 0 -41 -4 -53
-25 -69 -14 -11 -25 -25 -25 -31 0 -6 -7 -11 -15 -11 -11 0 -15 -11 -15 -40 0
-29 -4 -40 -15 -40 -11 0 -15 -11 -15 -40 0 -22 -4 -40 -10 -40 -5 0 -10 7
-10 17 0 25 -12 8 -31 -46 -9 -28 -29 -65 -43 -84 -15 -19 -26 -39 -25 -43 5
-28 -3 -84 -11 -84 -5 0 -10 9 -10 19 0 11 -4 23 -10 26 -6 4 -10 -7 -10 -27
0 -23 -11 -47 -35 -77 -19 -24 -35 -51 -35 -59 0 -21 -16 -4 -23 23 -4 16 -5
14 -6 -6 0 -15 -7 -32 -15 -38 -8 -7 -12 -21 -9 -31 6 -24 -12 -27 -25 -4 -6
11 -12 1 -21 -40 -11 -47 -15 -55 -34 -53 -20 2 -25 -6 -44 -73 -3 -12 -5 -12
-13 -1 -6 10 -14 3 -29 -27 -15 -28 -26 -40 -36 -36 -13 5 -15 -424 -15 -3795
0 -2297 4 -3801 9 -3801 5 0 12 6 15 13 5 9 7 9 12 0 8 -18 34 -16 34 2 0 8 7
15 16 15 14 0 14 -3 4 -15 -10 -12 -10 -15 0 -15 7 0 21 11 32 25 25 32 38 32
38 0 0 -16 6 -25 15 -25 11 0 15 11 15 40 0 39 1 40 36 40 27 0 41 7 56 25 11
14 28 25 39 25 10 0 19 7 19 15 0 8 6 15 13 15 8 0 19 18 26 40 10 33 16 40
36 40 16 0 25 -6 25 -15 0 -8 9 -15 20 -15 15 0 20 7 20 25 0 14 5 25 10 25 6
0 10 -4 10 -10 0 -5 7 -10 16 -10 14 0 16 8 11 43 -3 23 -3 35 -1 25 7 -24 34
-32 34 -9 0 10 7 18 16 18 10 0 14 -7 11 -19 -3 -10 0 -21 5 -25 11 -6 38 23
38 41 0 6 -5 4 -10 -4 -8 -12 -10 -11 -10 8 0 12 7 25 15 28 8 4 15 17 15 30
0 20 5 24 28 23 16 -1 20 -3 10 -6 -24 -6 -23 -23 2 -23 11 0 20 5 20 10 0 6
6 10 14 10 8 0 18 10 22 23 16 52 56 83 67 55 3 -7 3 1 0 18 -4 28 -2 32 24
37 15 3 30 1 31 -4 7 -17 18 -9 40 30 25 45 54 57 71 30 6 -11 19 -19 29 -19
15 1 15 2 2 13 -15 13 -40 52 -40 63 0 3 12 3 28 0 20 -5 23 -4 12 4 -13 9
-11 14 13 35 15 13 27 29 27 35 0 5 11 10 24 10 16 0 35 13 55 39 17 21 31 43
31 48 0 6 9 18 21 29 15 13 22 15 28 6 5 -8 15 -4 33 13 15 14 33 25 40 25 8
0 15 13 16 32 2 18 7 37 11 41 13 13 31 -1 25 -17 -3 -8 -1 -17 5 -21 7 -4 11
4 11 19 0 13 -6 26 -12 28 -18 6 14 37 44 42 13 2 22 9 20 16 -1 6 6 14 17 17
11 3 22 12 24 22 4 14 5 14 6 -1 2 -36 21 -16 21 22 0 36 3 40 24 40 13 0 27
-6 29 -12 3 -7 6 5 6 26 1 31 4 37 13 28 7 -7 15 -12 20 -12 13 0 32 43 39 90
l6 45 2 -42 c0 -24 5 -43 10 -43 10 0 71 58 71 66 0 3 5 10 10 17 6 7 17 21
24 32 12 16 16 17 30 6 14 -12 16 -9 17 25 0 35 1 37 11 17 6 -13 19 -23 30
-23 19 0 25 16 8 22 -6 2 -2 20 10 45 11 23 20 47 20 53 0 5 13 10 28 10 34 0
52 16 52 46 0 15 8 24 25 28 15 4 27 16 31 31 7 30 8 30 39 9 14 -9 25 -12 26
-8 8 91 19 135 19 78 0 -50 16 -60 24 -15 5 31 11 41 25 41 27 0 51 32 52 71
0 19 3 28 6 22 11 -29 40 -13 54 30 12 39 13 40 17 15 2 -16 7 -28 11 -28 10
0 41 34 41 46 1 26 40 54 74 54 34 0 36 2 36 33 0 55 10 77 35 77 29 0 80 26
81 42 1 7 2 19 3 27 1 8 8 11 21 8 17 -4 20 0 20 29 0 28 4 34 22 34 12 0 18
3 15 6 -16 16 43 44 91 44 42 0 54 4 70 25 12 15 30 25 46 25 24 0 26 4 26 41
0 22 4 38 9 35 5 -4 11 -1 13 5 3 8 11 5 23 -7 16 -17 18 -17 12 -2 -4 11 3
28 18 47 29 34 31 41 8 41 -14 0 -15 2 -4 13 11 10 14 10 18 0 3 -7 11 -13 19
-13 8 0 14 -7 14 -15 0 -8 5 -15 10 -15 6 0 10 7 10 15 0 8 -4 15 -10 15 -5 0
-10 7 -10 15 0 11 11 15 40 15 36 0 40 3 40 25 0 16 -6 25 -15 25 -8 0 -15 5
-15 10 0 6 7 10 15 10 8 0 15 -4 15 -10 0 -16 46 -12 60 5 7 8 20 15 29 16 9
1 5 4 -9 9 -14 4 -18 9 -10 9 8 1 48 33 89 71 40 39 79 70 86 70 17 0 48 37
41 49 -12 19 36 51 76 51 27 0 38 4 38 15 0 8 7 15 15 15 8 0 15 9 15 20 0 11
-7 20 -15 20 -8 0 -15 9 -15 20 0 13 7 20 20 20 45 0 81 63 43 73 -10 3 -4 5
14 6 18 0 36 7 40 15 4 8 15 16 23 18 8 2 23 14 34 26 15 19 21 21 27 10 7
-10 9 -10 9 0 0 6 7 12 15 12 8 0 15 4 15 9 0 5 14 23 31 40 17 17 35 31 40
31 5 0 9 6 9 14 0 8 6 17 13 19 6 3 -1 6 -16 6 -25 1 -28 4 -25 28 4 36 28 43
28 8 0 -23 2 -25 14 -15 8 6 12 18 9 26 -6 17 13 19 20 2 4 -10 8 -9 16 2 10
14 16 75 14 150 0 19 1 27 4 18 3 -13 15 -18 44 -18 35 0 39 3 39 25 0 23 4
25 40 25 29 0 40 4 40 15 0 8 7 15 15 15 18 0 22 76 4 82 -5 2 -7 11 -3 21 6
16 7 16 19 1 13 -19 19 -13 29 28 5 23 12 27 49 30 41 3 42 4 45 41 2 20 7 37
12 37 17 0 70 62 71 83 0 12 3 16 6 10 11 -29 40 -13 52 29 9 28 15 37 21 28
5 -8 15 -10 26 -6 14 6 15 9 5 15 -10 7 -11 13 -2 30 13 24 22 26 38 10 9 -9
14 -5 19 15 3 14 10 26 14 26 5 0 11 9 15 19 3 11 15 23 26 26 16 6 19 12 14
36 -5 21 -3 29 8 29 22 0 47 34 47 63 0 24 3 27 24 21 13 -3 27 -1 31 6 4 6
18 15 31 20 13 5 24 18 24 27 0 10 9 24 20 31 12 7 25 24 30 38 6 14 19 28 29
31 12 3 21 17 25 38 4 18 16 41 27 51 17 16 22 16 30 4 8 -13 14 -10 34 13 13
15 29 27 35 27 5 0 10 23 11 53 0 28 3 46 6 40 11 -29 40 -13 54 30 12 39 13
40 17 14 3 -23 6 -26 18 -16 8 6 14 16 14 21 0 12 41 47 55 48 6 0 23 18 38
40 16 22 34 40 41 40 7 0 21 9 31 20 17 18 17 20 2 14 -9 -3 -17 -10 -17 -15
0 -5 -5 -9 -12 -9 -6 0 -3 9 7 20 10 11 29 20 42 20 12 0 23 4 23 9 0 5 14 23
31 40 17 17 35 31 40 31 5 0 9 11 9 25 0 17 4 23 15 19 10 -4 19 7 31 35 9 23
20 41 25 41 5 0 9 9 9 20 0 12 7 20 18 20 9 0 28 12 41 25 17 18 34 25 63 25
35 0 38 2 24 15 -8 8 -19 15 -25 15 -17 0 -13 15 10 36 17 15 22 16 29 4 7
-12 12 -11 29 4 12 11 21 23 21 29 0 9 58 87 73 98 5 3 8 9 8 13 -1 3 2 6 5 5
4 0 11 5 15 13 6 9 9 4 9 -14 0 -18 5 -28 15 -28 11 0 15 11 15 40 0 22 5 40
10 40 6 0 10 5 10 12 0 6 -11 1 -25 -12 -25 -23 -25 -23 -25 -2 0 12 8 23 20
27 11 4 29 24 40 46 11 21 25 39 30 39 5 0 20 11 34 25 14 14 30 25 35 25 6 0
13 11 17 25 5 21 9 23 25 14 16 -8 19 -6 19 16 0 14 5 25 10 25 6 0 10 5 10
10 0 6 -7 10 -15 10 -9 0 -15 9 -15 21 0 16 5 20 20 16 10 -3 24 1 31 9 9 11
7 14 -10 14 -12 0 -21 6 -21 16 0 8 4 12 10 9 11 -7 62 40 53 49 -4 3 1 6 10
6 10 0 17 -6 17 -12 0 -24 19 16 25 54 5 28 12 38 25 38 10 0 21 -6 23 -12 3
-8 6 -5 6 5 1 11 15 32 32 48 18 16 29 32 26 36 -7 6 23 63 33 63 4 0 15 8 26
18 10 10 26 21 34 24 12 4 15 19 14 54 0 27 3 57 8 67 5 11 5 17 -2 17 -24 0
-8 31 20 37 l30 6 0 978 c0 864 -2 979 -15 979 -11 0 -15 11 -15 40 0 22 -4
40 -9 40 -5 0 -9 26 -9 58 0 62 -11 174 -18 181 -2 2 -4 -21 -4 -52 0 -31 -4
-59 -10 -62 -5 -3 -10 3 -10 14 0 12 -5 21 -10 21 -6 0 -10 33 -9 83 2 89 -8
157 -22 157 -5 0 -10 -6 -10 -12 -5 -35 -17 122 -18 222 -1 117 -11 164 -25
118 -7 -20 -9 -17 -22 27 -10 34 -15 100 -16 208 0 147 -1 157 -19 157 -15 0
-19 7 -19 40 l0 40 -2620 0 -2620 0 0 -120z m5320 -424 c0 -14 -4 -28 -10 -31
-6 -4 -10 7 -10 24 0 17 5 31 10 31 6 0 10 -11 10 -24z m-5510 -506 c0 -5 -7
-10 -15 -10 -8 0 -15 5 -15 10 0 6 7 10 15 10 8 0 15 -4 15 -10z m5618 -2277
c-3 -27 -38 -44 -38 -18 0 25 12 45 27 45 10 0 13 -9 11 -27z m-1561 -1818
c-23 -22 -33 -18 -12 5 10 11 20 18 23 16 2 -3 -3 -12 -11 -21z m-669 -758 c3
-12 -3 -17 -21 -17 -20 0 -24 4 -20 20 7 25 36 23 41 -3z m-391 -399 c-2 -13
-4 -5 -4 17 -1 22 1 32 4 23 2 -10 2 -28 0 -40z m-1587 -1449 c0 -5 -4 -9 -10
-9 -5 0 -10 7 -10 16 0 8 5 12 10 9 6 -3 10 -10 10 -16z m-1860 -1515 c0 -3
-7 -12 -15 -20 -13 -14 -15 -13 -15 5 0 12 6 21 15 21 8 0 15 -3 15 -6z"/>
<path d="M773 12680 c0 -25 2 -35 4 -22 2 12 2 32 0 45 -2 12 -4 2 -4 -23z"/>
<path d="M6054 9104 c3 -9 6 -19 6 -22 0 -9 20 21 20 31 0 4 -7 7 -16 7 -11 0
-14 -5 -10 -16z"/>
<path d="M5880 8890 c0 -5 5 -10 10 -10 6 0 10 5 10 10 0 6 -4 10 -10 10 -5 0
-10 -4 -10 -10z"/>
<path d="M5760 8704 c0 -14 3 -14 15 -4 8 7 15 14 15 16 0 2 -7 4 -15 4 -8 0
-15 -7 -15 -16z"/>
<path d="M5026 7935 c-3 -8 -1 -15 4 -15 6 0 10 7 10 15 0 8 -2 15 -4 15 -2 0
-6 -7 -10 -15z"/>
<path d="M4240 7135 c0 -8 5 -15 10 -15 6 0 10 7 10 15 0 8 -4 15 -10 15 -5 0
-10 -7 -10 -15z"/>
<path d="M3903 6783 c-18 -7 -16 -33 2 -33 8 0 15 9 15 20 0 11 -1 20 -2 19
-2 0 -9 -3 -15 -6z"/>
<path d="M3840 6730 c0 -5 9 -10 21 -10 11 0 17 5 14 10 -3 6 -13 10 -21 10
-8 0 -14 -4 -14 -10z"/>
<path d="M2643 5560 c0 -25 2 -35 4 -22 2 12 2 32 0 45 -2 12 -4 2 -4 -23z"/>
<path d="M1136 4204 c-5 -14 -4 -15 9 -4 17 14 19 20 6 20 -5 0 -12 -7 -15
-16z"/>
<path d="M1074 4143 c-16 -12 -15 -13 14 -13 20 0 32 5 32 13 0 8 -6 14 -14
14 -7 0 -22 -6 -32 -14z"/>
<path d="M280 3529 c0 -5 5 -7 10 -4 6 3 10 8 10 11 0 2 -4 4 -10 4 -5 0 -10
-5 -10 -11z"/>
</g>
</svg>
